<svg width="673" height="110" viewBox="0 0 673 110" fill="none" xmlns="http://www.w3.org/2000/svg">
<path d="M116.952 0L113.204 5.56123L115.307 6.98182L114.233 7.70748L115.262 9.23416L116.952 8.09262L118.642 9.23416L119.671 7.70748L118.597 6.98182L120.7 5.56123L116.952 0Z" fill="#F5F5F5"/>
<path d="M127.373 0.996176L122.641 5.74683L124.438 7.54023L123.246 8.04923L123.968 9.74325L125.843 8.94255L127.287 10.3837L128.585 9.07952L127.668 8.16341L130.001 7.16698L127.373 0.996176Z" fill="#F5F5F5"/>
<path d="M103.903 7.16698L106.531 0.996177L111.263 5.74683L109.466 7.54023L110.658 8.04923L109.937 9.74325L108.061 8.94255L106.617 10.3837L105.319 9.07952L106.236 8.16341L103.903 7.16698Z" fill="#F5F5F5"/>
<path d="M96.4874 3.9487L95.0727 10.5061L97.5526 11.0423L96.8246 12.1158L98.3465 13.1503L99.4917 11.4616L101.485 11.8926L101.873 10.0924L100.606 9.81849L102.031 7.71709L96.4874 3.9487Z" fill="#F5F5F5"/>
<path d="M131.873 7.71708L137.417 3.94871L138.831 10.5061L136.351 11.0423L137.079 12.1158L135.558 13.1503L134.412 11.4616L132.42 11.8926L132.031 10.0924L133.298 9.81849L131.873 7.71708Z" fill="#F5F5F5"/>
<path d="M115.159 9.65931L113.86 8.35515L112.61 9.60315L111.147 8.61458L110.118 10.1413L111.283 10.9282L109.215 12.992L113.327 17.1208L116.584 12.2875L114.164 10.6527L115.159 9.65931Z" fill="#F5F5F5"/>
<path d="M118.745 9.65931L120.044 8.35515L121.294 9.60315L122.757 8.61458L123.786 10.1413L122.621 10.9282L124.689 12.992L120.577 17.1208L117.32 12.2875L119.74 10.6527L118.745 9.65931Z" fill="#F5F5F5"/>
<path d="M87.1831 8.75087L87.0335 15.4578L89.57 15.5145L89.058 16.7064L90.748 17.4339L91.5533 15.5588L93.5916 15.6044L93.6326 13.7632L92.3369 13.7342L93.3391 11.4008L87.1831 8.75087Z" fill="#F5F5F5"/>
<path d="M140.565 11.4008L146.721 8.75087L146.871 15.4578L144.334 15.5145L144.846 16.7064L143.156 17.4339L142.351 15.5588L140.312 15.6044L140.271 13.7632L141.567 13.7342L140.565 11.4008Z" fill="#F5F5F5"/>
<path d="M128.829 9.78609L127.307 10.8206L128.096 11.9846L125.411 13.1313L127.696 18.4944L132.514 15.2193L130.874 12.801L132.166 12.249L131.445 10.555L129.821 11.2484L128.829 9.78609Z" fill="#F5F5F5"/>
<path d="M105.075 9.78609L106.597 10.8206L105.808 11.9846L108.493 13.1313L106.209 18.4944L101.39 15.2193L103.03 12.801L101.738 12.249L102.459 10.555L104.083 11.2484L105.075 9.78609Z" fill="#F5F5F5"/>
<path d="M98.409 13.5831L96.7191 12.8557L96.0217 14.4795L94.2959 14.1063L93.9075 15.9065L95.2812 16.2035L94.1279 18.8888L99.4782 21.1919L100.708 15.4928L97.8539 14.8757L98.409 13.5831Z" fill="#F5F5F5"/>
<path d="M135.495 13.5831L137.185 12.8557L137.882 14.4795L139.608 14.1063L139.997 15.9065L138.623 16.2035L139.776 18.8888L134.426 21.1919L133.196 15.4928L136.05 14.8757L135.495 13.5831Z" fill="#F5F5F5"/>
<path d="M78.9547 15.2291L80.0756 21.8431L82.577 21.4182L82.2996 22.6857L84.0966 23.0798L84.5329 21.086L86.5429 20.7446L86.2352 18.9289L84.9574 19.1459L85.5004 16.6648L78.9547 15.2291Z" fill="#F5F5F5"/>
<path d="M148.404 16.6648L154.949 15.2291L153.828 21.8431L151.327 21.4182L151.604 22.6857L149.807 23.0798L149.371 21.086L147.361 20.7446L147.669 18.9289L148.947 19.1459L148.404 16.6648Z" fill="#F5F5F5"/>
<path d="M90.8912 17.8471L89.0943 17.453L88.7164 19.1796L86.9513 19.1401L86.9103 20.9813L88.3153 21.0127L87.6905 23.868L93.3794 25.1158L93.5094 19.2868L90.5905 19.2215L90.8912 17.8471Z" fill="#F5F5F5"/>
<path d="M143.013 17.8471L144.81 17.453L145.188 19.1796L146.953 19.1401L146.994 20.9813L145.589 21.0127L146.214 23.868L140.525 25.1158L140.395 19.2868L143.314 19.2215L143.013 17.8471Z" fill="#F5F5F5"/>
<path d="M72.0996 23.1493L74.4505 29.4314L76.8264 28.5403L76.7936 29.8373L78.6326 29.8839L78.6841 27.8435L80.5933 27.1274L79.9479 25.4028L78.7343 25.858L78.7984 23.3188L72.0996 23.1493Z" fill="#F5F5F5"/>
<path d="M155.106 23.3188L161.805 23.1493L159.454 29.4314L157.078 28.5403L157.11 29.8373L155.271 29.8839L155.22 27.8435L153.311 27.1274L153.956 25.4028L155.17 25.858L155.106 23.3188Z" fill="#F5F5F5"/>
<path d="M84.3153 23.4584L82.4763 23.4119L82.4317 25.1789L80.6911 25.4745L80.9988 27.2902L82.3844 27.0549L82.3106 29.977L88.1326 30.1243L87.1584 24.376L84.2798 24.8649L84.3153 23.4584Z" fill="#F5F5F5"/>
<path d="M149.589 23.4584L151.428 23.4119L151.472 25.1789L153.213 25.4745L152.905 27.2902L151.52 27.0549L151.593 29.977L145.771 30.1243L146.746 24.376L149.624 24.8649L149.589 23.4584Z" fill="#F5F5F5"/>
<path d="M78.919 30.2142L77.1044 30.5169L77.3947 32.2604L75.7413 32.8806L76.3867 34.6052L77.7028 34.1115L78.1827 36.9948L83.9274 36.0364L81.8841 30.5765L79.15 31.602L78.919 30.2142Z" fill="#F5F5F5"/>
<path d="M154.985 30.2142L156.8 30.5169L156.509 32.2604L158.163 32.8806L157.517 34.6052L156.201 34.1115L155.721 36.9948L149.977 36.0364L152.02 30.5765L154.754 31.602L154.985 30.2142Z" fill="#F5F5F5"/>
<path d="M73.4754 31.1224L66.8655 32.2251L70.3616 37.9483L72.5261 36.6231L72.7391 37.903L74.5536 37.6002L74.2185 35.5869L75.9578 34.522L74.9981 32.9509L73.8924 33.6278L73.4754 31.1224Z" fill="#F5F5F5"/>
<path d="M160.012 33.6278L160.429 31.1224L167.039 32.2251L163.542 37.9483L161.378 36.6231L161.165 37.903L159.35 37.6002L159.686 35.5869L157.946 34.522L158.906 32.9509L160.012 33.6278Z" fill="#F5F5F5"/>
<path d="M72.2811 41.0906L73.2408 42.6617L74.4398 41.9277L75.4561 44.6679L80.9158 42.6384L77.8773 37.6643L75.3865 39.1893L74.8973 37.8703L73.1727 38.5114L73.7873 40.1684L72.2811 41.0906Z" fill="#F5F5F5"/>
<path d="M161.623 41.0906L160.663 42.6617L159.464 41.9277L158.448 44.6679L152.988 42.6384L156.027 37.6643L158.518 39.1893L159.007 37.8703L160.731 38.5114L160.117 40.1684L161.623 41.0906Z" fill="#F5F5F5"/>
<path d="M69.7237 39.7935L63.4418 42.1286L67.9566 47.086L69.8314 45.3747L70.2825 46.591L72.007 45.95L71.2974 44.0365L72.8039 42.6614L71.5645 41.3005L70.6068 42.1746L69.7237 39.7935Z" fill="#F5F5F5"/>
<path d="M163.297 42.1746L164.18 39.7935L170.462 42.1286L165.948 47.086L164.073 45.3747L163.622 46.591L161.897 45.95L162.607 44.0365L161.1 42.6614L162.34 41.3005L163.297 42.1746Z" fill="#F5F5F5"/>
<path d="M70.4354 49.8078L71.6748 51.1687L72.7133 50.2208L74.2292 52.7189L79.2066 49.6917L75.2828 45.3832L73.1252 47.3526L72.3955 46.1501L70.8233 47.1063L71.74 48.6169L70.4354 49.8078Z" fill="#F5F5F5"/>
<path d="M163.469 49.8078L162.229 51.1687L161.191 50.2208L159.675 52.7189L154.697 49.6917L158.621 45.3832L160.779 47.3526L161.509 46.1501L163.081 47.1063L162.164 48.6169L163.469 49.8078Z" fill="#F5F5F5"/>
<path d="M67.679 49.0187L61.952 52.5019L67.3223 56.5142L68.8398 54.4786L69.5127 55.5875L71.0849 54.6313L70.0263 52.8869L71.2457 51.2512L69.7714 50.1497L68.9963 51.1895L67.679 49.0187Z" fill="#F5F5F5"/>
<path d="M164.908 51.1895L166.225 49.0187L171.952 52.5019L166.582 56.5142L165.064 54.4786L164.391 55.5875L162.819 54.6313L163.878 52.8869L162.658 51.2512L164.133 50.1497L164.908 51.1895Z" fill="#F5F5F5"/>
<path d="M70.2709 58.7172L71.7451 59.8187L72.5857 58.6911L74.5465 60.8569L78.8616 56.9413L74.1942 53.4541L72.448 55.7967L71.5042 54.7542L70.1412 55.991L71.3268 57.3007L70.2709 58.7172Z" fill="#F5F5F5"/>
<path d="M163.633 58.7172L162.159 59.8187L161.318 58.6911L159.358 60.8569L155.042 56.9413L159.71 53.4541L161.456 55.7967L162.4 54.7542L163.763 55.991L162.577 57.3007L163.633 58.7172Z" fill="#F5F5F5"/>
<path d="M67.4151 58.4646L62.4501 62.9699L68.4819 65.8923L69.5871 63.6059L70.4575 64.5673L71.8205 63.3305L70.4513 61.8182L71.3394 59.9809L69.6836 59.1787L69.119 60.3466L67.4151 58.4646Z" fill="#F5F5F5"/>
<path d="M164.785 60.3466L166.489 58.4646L171.454 62.9699L165.422 65.8923L164.317 63.6059L163.447 64.5673L162.084 63.3305L163.453 61.8182L162.565 59.9809L164.22 59.1787L164.785 60.3466Z" fill="#F5F5F5"/>
<path d="M71.7936 67.4968L73.4494 68.299L74.0616 67.0326L76.3964 68.7877L79.8934 64.1253L74.6511 61.5855L73.3792 64.2166L72.2554 63.3717L71.1508 64.8444L72.5627 65.9058L71.7936 67.4968Z" fill="#F5F5F5"/>
<path d="M162.111 67.4968L160.455 68.299L159.842 67.0326L157.508 68.7877L154.011 64.1253L159.253 61.5855L160.525 64.2166L161.649 63.3717L162.753 64.8444L161.341 65.9058L162.111 67.4968Z" fill="#F5F5F5"/>
<path d="M68.9417 67.7898L64.9181 73.1544L71.3932 74.8811L72.0463 72.4267L73.0827 73.2058L74.1872 71.7331L72.5569 70.5075L73.0817 68.5352L71.3041 68.0612L70.9705 69.315L68.9417 67.7898Z" fill="#F5F5F5"/>
<path d="M162.934 69.315L164.962 67.7898L168.986 73.1544L162.511 74.8811L161.858 72.4267L160.821 73.2058L159.717 71.7331L161.347 70.5075L160.822 68.5352L162.6 68.0612L162.934 69.315Z" fill="#F5F5F5"/>
<path d="M74.9484 75.8292L76.726 76.3032L77.0877 74.9437L79.7121 76.2247L82.2645 70.984L76.6368 69.4833L75.8853 72.3078L74.6221 71.6912L73.8159 73.3465L75.4028 74.1212L74.9484 75.8292Z" fill="#F5F5F5"/>
<path d="M158.956 75.8292L157.178 76.3032L156.816 74.9437L154.192 76.2247L151.64 70.984L157.267 69.4833L158.019 72.3078L159.282 71.6912L160.088 73.3465L158.501 74.1212L158.956 75.8292Z" fill="#F5F5F5"/>
<path d="M75.9512 83.1559L76.1285 80.6221L77.2934 81.1908L78.0996 79.5354L76.2671 78.6409L76.4095 76.6048L74.5745 76.4761L74.4839 77.7704L72.2034 76.6572L69.2666 82.6872L75.9512 83.1559Z" fill="#F5F5F5"/>
<path d="M164.637 82.6872L157.953 83.1559L157.776 80.6221L156.611 81.1908L155.804 79.5354L157.637 78.6409L157.495 76.6048L159.33 76.4761L159.42 77.7704L161.701 76.6572L164.637 82.6872Z" fill="#F5F5F5"/>
<path d="M79.6214 83.4133L81.4564 83.542L81.5546 82.1384L84.3737 82.8991L85.8893 77.2695L80.0797 76.8622L79.8757 79.778L78.5187 79.4119L78.04 81.1901L79.7447 81.6501L79.6214 83.4133Z" fill="#F5F5F5"/>
<path d="M154.283 83.4133L152.448 83.542L152.349 82.1384L149.53 82.8991L148.015 77.2695L153.824 76.8622L154.028 79.778L155.385 79.4119L155.864 81.1901L154.159 81.6501L154.283 83.4133Z" fill="#F5F5F5"/>
<path d="M90.6368 82.7547L84.8552 83.4554L85.2061 86.3572L83.8044 86.2548L83.6705 88.0915L85.4314 88.2202L85.6435 89.975L87.4698 89.7536L87.3009 88.3568L90.2128 88.5697L90.6368 82.7547Z" fill="#F5F5F5"/>
<path d="M143.691 88.5697L143.267 82.7547L149.049 83.4554L148.698 86.3572L150.1 86.2548L150.234 88.0915L148.473 88.2202L148.261 89.975L146.434 89.7536L146.603 88.3568L143.691 88.5697Z" fill="#F5F5F5"/>
<path d="M81.9911 90.4176L81.6862 87.896L82.9375 88.2337L83.4163 86.4555L81.4477 85.9243L81.2027 83.8981L79.3765 84.1194L79.5322 85.4075L77.0825 84.7465L75.3387 91.2239L81.9911 90.4176Z" fill="#F5F5F5"/>
<path d="M158.565 91.2239L151.913 90.4176L152.218 87.896L150.967 88.2337L150.488 86.4555L152.456 85.9243L152.701 83.8981L154.528 84.1194L154.372 85.4075L156.822 84.7465L158.565 91.2239Z" fill="#F5F5F5"/>
<path d="M96.3355 87.2412L90.7907 89.0247L91.6838 91.8076L90.2882 91.9726L90.5039 93.8015L92.2572 93.5942L92.7973 95.2771L94.5487 94.7137L94.1188 93.3742L97.0183 93.0314L96.3355 87.2412Z" fill="#F5F5F5"/>
<path d="M136.886 93.0314L137.569 87.2412L143.113 89.0247L142.22 91.8076L143.616 91.9726L143.4 93.8015L141.647 93.5942L141.107 95.2771L139.355 94.7137L139.785 93.3742L136.886 93.0314Z" fill="#F5F5F5"/>
<path d="M89.2945 96.4037L88.5184 93.9855L89.811 94.08L89.9449 92.2432L87.9116 92.0946L87.288 90.1514L85.5366 90.7147L85.933 91.95L83.4026 91.7651L82.9147 98.4558L89.2945 96.4037Z" fill="#F5F5F5"/>
<path d="M150.989 98.4558L144.61 96.4037L145.386 93.9855L144.093 94.08L143.959 92.2432L145.992 92.0946L146.616 90.1514L148.367 90.7147L147.971 91.95L150.501 91.7651L150.989 98.4558Z" fill="#F5F5F5"/>
<path d="M102.779 90.5669L97.6718 93.3687L99.0749 95.9321L97.7356 96.3586L98.2931 98.1136L99.9756 97.5779L100.824 99.128L102.437 98.243L101.762 97.0091L104.544 96.1232L102.779 90.5669Z" fill="#F5F5F5"/>
<path d="M129.36 96.1232L131.125 90.5669L136.232 93.3687L134.829 95.9321L136.168 96.3586L135.611 98.1136L133.928 97.5779L133.08 99.128L131.467 98.243L132.142 97.0091L129.36 96.1232Z" fill="#F5F5F5"/>
<path d="M109.735 92.6117L105.25 96.3306L107.112 98.5818L105.878 99.2543L106.757 100.872L108.308 100.027L109.434 101.388L110.851 100.214L109.954 99.1302L112.519 97.7331L109.735 92.6117Z" fill="#F5F5F5"/>
<path d="M121.385 97.7331L124.169 92.6117L128.654 96.3306L126.792 98.5818L128.027 99.2543L127.147 100.872L125.596 100.027L124.47 101.388L123.054 100.214L123.95 99.1302L121.385 97.7331Z" fill="#F5F5F5"/>
<path d="M116.952 93.3016L113.251 97.8031L115.505 99.6608L114.42 100.555L115.589 101.977L116.952 100.854L118.315 101.977L119.484 100.555L118.399 99.6608L120.653 97.8031L116.952 93.3016Z" fill="#F5F5F5"/>
<path d="M96.3784 98.6704L97.5976 100.898L91.721 104.122L90.9353 97.4594L93.4549 97.1615L92.8321 96.0237L94.4453 95.1387L95.425 96.9287L97.4497 96.6893L97.6654 98.5183L96.3784 98.6704Z" fill="#F5F5F5"/>
<path d="M136.307 100.898L142.183 104.122L142.969 97.4594L140.449 97.1616L141.072 96.0237L139.459 95.1387L138.479 96.9287L136.454 96.6893L136.239 98.5183L137.526 98.6704L136.307 100.898Z" fill="#F5F5F5"/>
<path d="M104.982 101.782L106.6 103.738L101.439 108.017L99.4082 101.624L101.826 100.854L100.999 99.8545L102.416 98.6799L103.717 100.252L105.659 99.6332L106.217 101.388L104.982 101.782Z" fill="#F5F5F5"/>
<path d="M127.304 103.738L132.465 108.017L134.496 101.624L132.078 100.854L132.905 99.8545L131.488 98.6799L130.188 100.252L128.245 99.6332L127.687 101.388L128.922 101.782L127.304 103.738Z" fill="#F5F5F5"/>
<path d="M114.018 103.206L115.977 104.821L111.718 110L108.515 104.107L110.744 102.893L109.743 102.069L110.912 100.647L112.486 101.944L114.277 100.968L115.156 102.586L114.018 103.206Z" fill="#F5F5F5"/>
<path d="M117.927 104.821L122.186 110L125.389 104.107L123.16 102.893L124.161 102.069L122.992 100.647L121.418 101.944L119.627 100.968L118.748 102.586L119.886 103.206L117.927 104.821Z" fill="#F5F5F5"/>
<path d="M152.375 55.1248C152.375 74.7103 136.515 90.5875 116.952 90.5875C97.3887 90.5875 81.5295 74.7103 81.5295 55.1248C81.5295 35.5393 97.3887 19.6621 116.952 19.6621C136.515 19.6621 152.375 35.5393 152.375 55.1248Z" fill="#F5F5F5"/>
<path fill-rule="evenodd" clip-rule="evenodd" d="M0 97V13H29.16C36.28 13 42.24 14.12 47.04 16.36C51.92 18.52 55.6 21.64 58.08 25.72C60.56 29.8 61.8 34.72 61.8 40.48C61.8 46.08 60.56 50.96 58.08 55.12C55.6 59.2 51.92 62.36 47.04 64.6C42.24 66.76 36.28 67.84 29.16 67.84H20.28V97H0ZM20.28 29.68V51.16H29.16C33.24 51.16 36.44 50.24 38.76 48.4C41.08 46.56 42.24 43.92 42.24 40.48C42.24 36.96 41.08 34.28 38.76 32.44C36.44 30.6 33.24 29.68 29.16 29.68H20.28Z" fill="#F5F5F5"/>
<path d="M173.32 97V13H193.96V97H173.32Z" fill="#F5F5F5"/>
<path d="M243.078 31.12H209.718V13H275.598L235.878 79.6H271.278V97H203.958L243.078 31.12Z" fill="#F5F5F5"/>
<path fill-rule="evenodd" clip-rule="evenodd" d="M278.635 72.88C276.475 67.44 275.395 61.48 275.395 55C275.395 48.52 276.515 42.6 278.755 37.24C281.075 31.88 284.275 27.24 288.355 23.32C292.435 19.4 297.235 16.4 302.755 14.32C308.275 12.16 314.235 11.08 320.635 11.08C327.115 11.08 333.075 12.16 338.515 14.32C344.035 16.4 348.835 19.4 352.915 23.32C356.995 27.24 360.155 31.88 362.395 37.24C364.635 42.6 365.755 48.52 365.755 55C365.755 61.48 364.635 67.44 362.395 72.88C360.235 78.32 357.115 83.04 353.035 87.04C349.035 91.04 344.275 94.16 338.755 96.4C333.235 98.56 327.195 99.64 320.635 99.64C313.995 99.64 307.915 98.56 302.395 96.4C296.875 94.16 292.075 91.04 287.995 87.04C283.995 83.04 280.875 78.32 278.635 72.88ZM299.755 41.92C297.835 45.68 296.875 50.04 296.875 55C296.875 59.96 297.835 64.36 299.755 68.2C301.755 71.96 304.515 74.92 308.035 77.08C311.635 79.24 315.835 80.32 320.635 80.32C325.355 80.32 329.475 79.24 332.995 77.08C336.595 74.92 339.355 71.96 341.275 68.2C343.275 64.36 344.275 59.96 344.275 55C344.275 50.04 343.315 45.68 341.395 41.92C339.475 38.08 336.755 35.08 333.235 32.92C329.715 30.76 325.515 29.68 320.635 29.68C315.835 29.68 311.635 30.76 308.035 32.92C304.515 35.08 301.755 38.08 299.755 41.92Z" fill="#F5F5F5"/>
<path d="M436.71 60.28V13H456.27V101.2L398.19 49.72V97H378.75V8.8L436.71 60.28Z" fill="#F5F5F5"/>
<path d="M510 97V13H531V46.1376L559.56 13H583.32L549.24 52.36L585.12 97H560.52L531 60.2751V97H510Z" fill="#F5F5F5"/>
<path d="M651.89 66.64H629.57V51.04H672.05C672.45 57.76 671.77 64.04 670.01 69.88C668.25 75.72 665.53 80.88 661.85 85.36C658.17 89.84 653.57 93.36 648.05 95.92C642.53 98.4 636.21 99.64 629.09 99.64C622.37 99.64 616.21 98.6 610.61 96.52C605.01 94.36 600.17 91.32 596.09 87.4C592.01 83.4 588.81 78.68 586.49 73.24C584.25 67.72 583.13 61.64 583.13 55C583.13 48.36 584.29 42.36 586.61 37C588.93 31.56 592.21 26.92 596.45 23.08C600.69 19.24 605.65 16.28 611.33 14.2C617.01 12.12 623.17 11.08 629.81 11.08C635.73 11.08 641.05 11.92 645.77 13.6C650.49 15.28 654.65 17.64 658.25 20.68C661.93 23.64 665.09 27.08 667.73 31L649.73 40.36C647.81 37 645.21 34.24 641.93 32.08C638.73 29.84 634.69 28.72 629.81 28.72C625.17 28.72 620.89 29.76 616.97 31.84C613.13 33.92 610.05 36.92 607.73 40.84C605.49 44.68 604.37 49.4 604.37 55C604.37 60.52 605.45 65.32 607.61 69.4C609.85 73.4 612.85 76.52 616.61 78.76C620.45 80.92 624.85 82 629.81 82C632.85 82 635.61 81.64 638.09 80.92C640.57 80.12 642.69 79.04 644.45 77.68C646.21 76.24 647.69 74.6 648.89 72.76C650.17 70.84 651.17 68.8 651.89 66.64Z" fill="#F5F5F5"/>
</svg>
